<svg xmlns="http://www.w3.org/2000/svg" width="198.061" height="48.922" viewBox="30.904 28.433 198.061 48.922"><path fill="#EB5D13" d="M77.5 70.5c3.3.3 6.6-.1 9.8-1.1 1.1-.4 4-1.7 5-2.601.3-.3.7-.6 1-.899 1.6-1.5 2.3-2.5 2.4-2.601 1-.8 1.8-1.3 2.699-1.399.9-.101 1.7.2 2.4.8.6.5.8 1.4.6 2.6-.3 1.4-1.1 2.7-2.5 3.9-4.5 3.6-9.6 5.7-14.899 6.5-4.101 1.1-9.8-.1-14.101-1.5-3.399-1.1-8.8-4.5-10.199-5.3-1.4-.8-2.301-1.4-2.601-1.7-.6-.6-.899-1.2-.8-1.8 0-.601 0-1.4.8-2.2.9-.8 2.2-.9 3.101-.7.8.2 1.699.7 2.6 1.5.7.601 1.4 1.2 2.1 1.9.801.7 5.101 3.2 7.4 3.8 2.2.5 4.5 1 5.2.8z"/><g fill="#5E4F9C"><path d="M33.8 45c.9-2.3 2.2-4.2 3.8-5.899 1.601-1.7 3.601-2.9 5.8-3.9 2.2-.9 4.7-1.4 7.301-1.4.8 0 1.899.101 3.199.2 1.301.101 2.5.4 3.7.7 1.2.4 2.2 1 3.101 1.7.899.8 1.3 1.8 1.3 3.1 0 .601-.2 1-.601 1.2-.4.199-.9.299-1.4.299-.8 0-1.5-.1-2.2-.2-.7-.1-1.4-.199-2.1-.399-.7-.101-1.4-.301-2.1-.401h-2.3c-1.6 0-3.1.2-4.6.7-1.4.4-2.601 1.1-3.7 2-1.101.9-1.9 2-2.5 3.4-.6 1.3-.9 2.9-.9 4.7 0 .301.101.601.2 1 .1.4.3.7.4 1l.6.9c.2.3.5.5.8.6h.4c1.5 0 2.899-.199 4.399-.5 1.4-.399 2.9-.5 4.301-.5.699 0 1.399 0 2.199.101.801 0 1.601.2 2.301.399.699.2 1.399.5 2 .9.6.4 1.6.9 1.5 1.7-.101.7-2 2-2 2-.4 0-1.101 0-2 .1-1 .101-2 .2-3.101.3-1.099.1-2.099.2-3.099.3-1 .1-1.601.199-2 .3-.101 0-.2 0-.4.1l-.6.3-.6.3c-.2.1-.3.2-.4.2.2.7.4 1.6.4 2.7 0 1.101-.1 2.101-.3 3.101-.3 1-.7 1.8-1.399 2.5-.7.699-1.601 1-2.7 1-.8 0-1.5-.301-2.2-1A13.71 13.71 0 0 1 36.3 66c-.6-1.1-1.2-2.3-1.7-3.6s-.9-2.6-1.3-3.9-.6-2.4-.8-3.5c-.2-1.1-.3-2-.3-2.6.2-2.7.7-5.1 1.6-7.4zM127.2 45.1c.1-.5.1-1.101 0-1.9 0-.5-.101-1-.2-1.4-.101-.399-.3-.699-.8-.899-4.5-1.2-8.9-2.101-13.2-2.7-4.4-.6-8.8-.8-13.2-.5-.2 0-.5 0-.8.1-.4 0-.7.101-1 .101s-.6.098-.9.098-.4.1-.4.1-.8.9-.7 1.2c0 .4.9 1.1.9 1.1.5.7 1.301 1.2 2.2 1.5 1 .3 2.101.5 3.3.6 1.2.101 2.4.3 3.7.4 1.3.1 2.4.3 3.5.5 1 .3 1.9.7 2.601 1.3.699.6 1.1 1.4 1.199 2.5.101 1.5 0 3-.199 4.5-.301 1.5-.5 2.9-.9 4.3-.3 1.4-.6 2.8-.9 4.3-.3 1.5-.3 3-.199 4.5.1 1.4.3 2.4.5 2.9.3.6.899.8 1.8.8.899-.1 1.6-.5 2.1-1.2.5-.699.9-1.699 1.101-2.8.3-1.1.399-2.399.6-3.8.1-1.4.3-2.8.4-4.3.197-1.4.397-2.8.697-4.1.3-1.3.8-2.4 1.5-3.4.7-.9 1.5-1.601 2.601-2 1.1-.4 2.5-.4 4.2 0 .199-.6.399-1.3.499-1.8zM130.2 44.5c.3-1.8.699-3.399 1.399-4.8s1.601-2.6 2.7-3.5 2.6-1.3 4.3-1.3c2.3 0 4.3.5 5.9 1.399 1.6.9 2.8 2.2 3.6 3.801.9 1.6 1.4 3.399 1.7 5.5.3 2.1.3 4.3.1 6.6.7.5 1.5.9 2.4 1.2.9.399 1.9.7 2.9 1.1 1 .4 2 .8 2.899 1.2 1 .4 1.8 1 2.601 1.6.8.601 1.399 1.4 1.8 2.301.5.899.7 1.899.7 3.199 0 1.2-.301 2.301-.801 3.2-.5.9-1.199 1.7-2 2.4-.8.6-1.699 1.1-2.699 1.5-1 .3-2 .5-2.9.5-1.8 0-3.3-.3-4.7-.8-1.399-.5-2.6-1.2-3.8-2l-3.6-2.4c-1.2-.8-2.601-1.4-4.101-1.9h-3.402c-.399-.1-.8-.5-1.199-1.1-.4-.6-.801-1.4-1.2-2.3-.4-.9-.8-1.9-1.101-3-.3-1.101-.6-2.101-.899-3.101s-.5-1.8-.601-2.6C130 50.5 130 50 130 49.7c-.2-1.7-.1-3.4.2-5.2zm7.1-2.1v2.2c0 .8.1 1.6.2 2.399.1.8.3 1.5.5 2.101.2.6.6 1.1 1 1.5.399.399 1 .6 1.7.6 2.699 0 4.1-1.6 4.1-4.8 0-1.101-.2-2-.8-2.7a6.57 6.57 0 0 0-1.9-1.8c-.8-.4-1.6-.8-2.399-1-.9-.2-1.601-.3-2.4-.3.099.6.099 1.2-.001 1.8zm6.2 19.4a4.593 4.593 0 0 0 1.6 1.5c.601.4 1.4.7 2.101 1 .8.301 1.6.5 2.3.7.8.2 1.399.3 2.1.3.599.1 1.099.1 1.399.1.5 0 1 0 1.6-.101.601-.1 1.101-.199 1.601-.5.5-.199.899-.5 1.199-1 .301-.399.5-1 .5-1.699 0-.601-.199-1.2-.6-1.601-.4-.399-1-.8-1.7-1.1s-1.399-.5-2.2-.7c-.8-.2-1.6-.3-2.399-.4-.8-.1-1.5-.1-2.2-.1H143.801c-.1.1-.3.2-.5.5s-.3.4-.4.5v.5c-.001.801.199 1.501.599 2.101zM167.1 52.3c0-1.399.101-2.8.3-4.199.2-1.4.5-2.601.9-3.601s1.1-1.5 2-1.5c.6 0 1.1.4 1.6 1.3s.9 2 1.301 3.301c.399 1.399.699 2.8 1 4.5.3 1.6.5 3.199.699 4.699.2 1.5.301 2.801.301 4.101 0 1.2 0 2-.101 2.5-.2 1.1-.5 2-.8 2.7-.3.699-.6 1.199-1 1.6s-.8.6-1.2.7c-.399.1-.899.2-1.399.2-1 0-1.801-.4-2.301-1.301a9.275 9.275 0 0 1-1.1-3.199c-.2-1.301-.3-2.7-.3-4.2V55.8c.1-.9.1-2.1.1-3.5zM180.7 43.9c.8.1 1.399.6 1.8 1.399.399.801.7 1.801.899 2.9.2 1.1.301 2.3.301 3.6 0 1.301.1 2.5.199 3.601.101 1.1.2 2 .5 2.8.2.8.601 1.2 1.2 1.3h.4c.3-.3.8-.8 1.5-1.6.7-.7 1.399-1.5 2.2-2.4.8-.899 1.5-1.7 2.199-2.399.7-.801 1.2-1.301 1.4-1.601.5-.5 1-1.3 1.7-2.3s1.5-2.1 2.3-3.2c.8-1.1 1.7-2.3 2.6-3.5.9-1.2 1.801-2.2 2.7-3.1.9-.9 1.8-1.7 2.7-2.2.9-.6 1.7-.8 2.4-.7.399.101.8.2 1.1.5s.4.8.4 1.5c0 .101 0 .2-.101.3 0 .101 0 .2-.1.2-.801.601-1.7 1.3-2.801 2.2-1.1.9-2.199 2-3.3 3.1-1.1 1.101-2 2.301-2.8 3.601s-1.3 2.5-1.4 3.8c-.1 1.1.2 1.9.9 2.5s1.7 1.1 2.8 1.5c1.101.4 2.4.8 3.8 1 1.4.3 2.601.6 3.801 1 1.1.4 2.1.9 2.8 1.5s1 1.4.899 2.4c0 .1 0 .199-.1.3 0 .1 0 .2-.1.3-.101.1-.2.3-.5.5l-.5.5h-8-.4s-.2 0-.3-.1c-.2-.101-.4-.2-.9-.301-.396-.2-.896-.4-1.496-.6-.6-.2-1.2-.5-1.8-.8s-1.2-.5-1.8-.8c-.601-.2-1.101-.4-1.5-.601-.4-.2-.7-.3-.9-.3 0 0-.2-.1-.399-.1-.2 0-.4-.101-.5-.101h-.7s-5.5 5-7.8 5.601H184c-1.301-.2-2.301-1-3.101-2.4s-1.399-3.1-1.8-5-.6-4-.6-6.1c0-2.101 0-3.9.199-5.5C179 44.5 179.6 43.8 180.7 43.9zM93.7 48.6c.2 2.2-.3 4.2-1.5 6.1-1.1 1.7-2.2 2.6-3.2 2.6-1.1.1-2.3-.4-3.6-1.6-1.699-1.5-2.6-3.4-2.8-5.8-.2-1.9.2-3.601 1.2-5.2.9-1.4 1.9-2.1 2.9-2.2 1.6-.1 3.199.4 4.5 1.5 1.4 1.2 2.3 2.7 2.5 4.6zM76.5 49.6c0 2-.7 3.899-2 5.6-1.2 1.5-2.2 2.2-3.2 2.2s-2.1-.601-3.2-1.7C66.7 54.2 66 52.3 66 50c0-1.8.5-3.399 1.6-4.7 1-1.199 1.9-1.899 2.9-1.899 1.5 0 2.899.6 4.1 1.7 1.3 1.199 1.9 2.699 1.9 4.499z"/></g><g><path fill="#5E4F9C" d="M228 36.3c0 3.4-2.8 6.2-6.3 6.2s-6.301-2.7-6.301-6.2c0-3.399 2.801-6.1 6.4-6.1 3.401-.1 6.201 2.6 6.201 6.1zm-11.1 0c0 2.7 2.101 4.9 4.801 4.9 2.699 0 4.699-2.2 4.699-4.9 0-2.699-2-4.899-4.8-4.899-2.6-.001-4.7 2.199-4.7 4.899zm3.8 3.1h-1.4v-6.1c.6-.1 1.3-.199 2.4-.199 1.199 0 1.699.199 2.1.5.4.3.6.699.6 1.3 0 .7-.6 1.2-1.3 1.5v.1c.601.2.9.7 1.101 1.5.199.9.3 1.3.5 1.5h-1.5c-.2-.2-.301-.7-.5-1.5-.101-.6-.5-.899-1.301-.899h-.7V39.4zm0-3.4h.699c.801 0 1.4-.3 1.4-.899 0-.601-.4-.9-1.3-.9-.4 0-.601 0-.8.1V36h.001z"/></g></svg>