<?xml version="1.0" encoding="utf-8"?>
<!-- Generator: Adobe Illustrator 22.0.1, SVG Export Plug-In . SVG Version: 6.00 Build 0)  -->
<svg version="1.1" id="Слой_1" xmlns="http://www.w3.org/2000/svg" xmlns:xlink="http://www.w3.org/1999/xlink" x="0px" y="0px"
	 width="255.1px" height="113.4px" viewBox="0 0 255.1 113.4" style="enable-background:new 0 0 255.1 113.4;" xml:space="preserve"
	>
<style type="text/css">
	.st0{fill:#EB5D13;}
	.st1{fill:#5E4F9C;}
</style>
<g>
	<g>
		<path class="st0" d="M77.5,70.5c3.3,0.3,6.6-0.1,9.8-1.1c1.1-0.4,4-1.7,5-2.6c0.3-0.3,0.7-0.6,1-0.9c1.6-1.5,2.3-2.5,2.4-2.6
			c1-0.8,1.8-1.3,2.7-1.4c0.9-0.1,1.7,0.2,2.4,0.8c0.6,0.5,0.8,1.4,0.6,2.6c-0.3,1.4-1.1,2.7-2.5,3.9c-4.5,3.6-9.6,5.7-14.9,6.5
			c-4.1,1.1-9.8-0.1-14.1-1.5c-3.4-1.1-8.8-4.5-10.2-5.3c-1.4-0.8-2.3-1.4-2.6-1.7c-0.6-0.6-0.9-1.2-0.8-1.8c0-0.6,0-1.4,0.8-2.2
			c0.9-0.8,2.2-0.9,3.1-0.7c0.8,0.2,1.7,0.7,2.6,1.5c0.7,0.6,1.4,1.2,2.1,1.9c0.8,0.7,5.1,3.2,7.4,3.8
			C74.5,70.2,76.8,70.7,77.5,70.5z"/>
		<g>
			<path class="st1" d="M33.8,45c0.9-2.3,2.2-4.2,3.8-5.9c1.6-1.7,3.6-2.9,5.8-3.9c2.2-0.9,4.7-1.4,7.3-1.4c0.8,0,1.9,0.1,3.2,0.2
				c1.3,0.1,2.5,0.4,3.7,0.7c1.2,0.4,2.2,1,3.1,1.7c0.9,0.8,1.3,1.8,1.3,3.1c0,0.6-0.2,1-0.6,1.2c-0.4,0.2-0.9,0.3-1.4,0.3
				c-0.8,0-1.5-0.1-2.2-0.2c-0.7-0.1-1.4-0.2-2.1-0.4c-0.7-0.1-1.4-0.3-2.1-0.4C52.8,40,52.1,40,51.3,40c-1.6,0-3.1,0.2-4.6,0.7
				c-1.4,0.4-2.6,1.1-3.7,2c-1.1,0.9-1.9,2-2.5,3.4c-0.6,1.3-0.9,2.9-0.9,4.7c0,0.3,0.1,0.6,0.2,1c0.1,0.4,0.3,0.7,0.4,1
				c0.2,0.3,0.4,0.6,0.6,0.9c0.2,0.3,0.5,0.5,0.8,0.6c0.2,0,0.4,0,0.4,0c1.5,0,2.9-0.2,4.4-0.5c1.4-0.4,2.9-0.5,4.3-0.5
				c0.7,0,1.4,0,2.2,0.1c0.8,0,1.6,0.2,2.3,0.4c0.7,0.2,1.4,0.5,2,0.9c0.6,0.4,1.6,0.9,1.5,1.7c-0.1,0.7-2,2-2,2c-0.4,0-1.1,0-2,0.1
				c-1,0.1-2,0.2-3.1,0.3c-1.1,0.1-2.1,0.2-3.1,0.3c-1,0.1-1.6,0.2-2,0.3c-0.1,0-0.2,0-0.4,0.1c-0.2,0.1-0.4,0.2-0.6,0.3
				c-0.2,0.1-0.4,0.2-0.6,0.3c-0.2,0.1-0.3,0.2-0.4,0.2c0.2,0.7,0.4,1.6,0.4,2.7c0,1.1-0.1,2.1-0.3,3.1c-0.3,1-0.7,1.8-1.4,2.5
				c-0.7,0.7-1.6,1-2.7,1c-0.8,0-1.5-0.3-2.2-1c-0.7-0.7-1.4-1.6-2-2.6c-0.6-1.1-1.2-2.3-1.7-3.6c-0.5-1.3-0.9-2.6-1.3-3.9
				c-0.4-1.3-0.6-2.4-0.8-3.5c-0.2-1.1-0.3-2-0.3-2.6C32.4,49.7,32.9,47.3,33.8,45z"/>
			<path class="st1" d="M127.2,45.1c0.1-0.5,0.1-1.1,0-1.9c0-0.5-0.1-1-0.2-1.4c-0.1-0.4-0.3-0.7-0.8-0.9c-4.5-1.2-8.9-2.1-13.2-2.7
				c-4.4-0.6-8.8-0.8-13.2-0.5c-0.2,0-0.5,0-0.8,0.1c-0.4,0-0.7,0.1-1,0.1c-0.3,0-0.6,0.1-0.9,0.1c-0.3,0-0.4,0.1-0.4,0.1
				c0,0-0.8,0.9-0.7,1.2c0,0.4,0.9,1.1,0.9,1.1c0.5,0.7,1.3,1.2,2.2,1.5c1,0.3,2.1,0.5,3.3,0.6c1.2,0.1,2.4,0.3,3.7,0.4
				c1.3,0.1,2.4,0.3,3.5,0.5c1,0.3,1.9,0.7,2.6,1.3c0.7,0.6,1.1,1.4,1.2,2.5c0.1,1.5,0,3-0.2,4.5c-0.3,1.5-0.5,2.9-0.9,4.3
				c-0.3,1.4-0.6,2.8-0.9,4.3c-0.3,1.5-0.3,3-0.2,4.5c0.1,1.4,0.3,2.4,0.5,2.9c0.3,0.6,0.9,0.8,1.8,0.8c0.9-0.1,1.6-0.5,2.1-1.2
				c0.5-0.7,0.9-1.7,1.1-2.8c0.3-1.1,0.4-2.4,0.6-3.8c0.1-1.4,0.3-2.8,0.4-4.3c0.2-1.4,0.4-2.8,0.7-4.1c0.3-1.3,0.8-2.4,1.5-3.4
				c0.7-0.9,1.5-1.6,2.6-2c1.1-0.4,2.5-0.4,4.2,0C126.9,46.3,127.1,45.6,127.2,45.1z"/>
			<path class="st1" d="M130.2,44.5c0.3-1.8,0.7-3.4,1.4-4.8c0.7-1.4,1.6-2.6,2.7-3.5c1.1-0.9,2.6-1.3,4.3-1.3
				c2.3,0,4.3,0.5,5.9,1.4c1.6,0.9,2.8,2.2,3.6,3.8c0.9,1.6,1.4,3.4,1.7,5.5c0.3,2.1,0.3,4.3,0.1,6.6c0.7,0.5,1.5,0.9,2.4,1.2
				c0.9,0.4,1.9,0.7,2.9,1.1c1,0.4,2,0.8,2.9,1.2c1,0.4,1.8,1,2.6,1.6c0.8,0.6,1.4,1.4,1.8,2.3c0.5,0.9,0.7,1.9,0.7,3.2
				c0,1.2-0.3,2.3-0.8,3.2c-0.5,0.9-1.2,1.7-2,2.4c-0.8,0.6-1.7,1.1-2.7,1.5c-1,0.3-2,0.5-2.9,0.5c-1.8,0-3.3-0.3-4.7-0.8
				c-1.4-0.5-2.6-1.2-3.8-2c-1.2-0.8-2.4-1.6-3.6-2.4c-1.2-0.8-2.6-1.4-4.1-1.9c-0.1,0-0.3,0-0.6,0c-0.3,0-0.7,0-1.1,0
				c-0.4,0-0.8,0-1.1,0c-0.3,0-0.6,0-0.6,0c-0.4-0.1-0.8-0.5-1.2-1.1c-0.4-0.6-0.8-1.4-1.2-2.3c-0.4-0.9-0.8-1.9-1.1-3
				c-0.3-1.1-0.6-2.1-0.9-3.1c-0.3-1-0.5-1.8-0.6-2.6c-0.2-0.7-0.2-1.2-0.2-1.5C129.8,48,129.9,46.3,130.2,44.5z M137.3,42.4
				c0,0.7,0,1.4,0,2.2c0,0.8,0.1,1.6,0.2,2.4c0.1,0.8,0.3,1.5,0.5,2.1c0.2,0.6,0.6,1.1,1,1.5c0.4,0.4,1,0.6,1.7,0.6
				c2.7,0,4.1-1.6,4.1-4.8c0-1.1-0.2-2-0.8-2.7c-0.5-0.7-1.1-1.3-1.9-1.8c-0.8-0.4-1.6-0.8-2.4-1c-0.9-0.2-1.6-0.3-2.4-0.3
				C137.4,41.2,137.4,41.8,137.3,42.4z M143.5,61.8c0.4,0.6,0.9,1.1,1.6,1.5c0.6,0.4,1.4,0.7,2.1,1c0.8,0.3,1.6,0.5,2.3,0.7
				c0.8,0.2,1.4,0.3,2.1,0.3c0.6,0.1,1.1,0.1,1.4,0.1c0.5,0,1,0,1.6-0.1c0.6-0.1,1.1-0.2,1.6-0.5c0.5-0.2,0.9-0.5,1.2-1
				c0.3-0.4,0.5-1,0.5-1.7c0-0.6-0.2-1.2-0.6-1.6c-0.4-0.4-1-0.8-1.7-1.1c-0.7-0.3-1.4-0.5-2.2-0.7c-0.8-0.2-1.6-0.3-2.4-0.4
				c-0.8-0.1-1.5-0.1-2.2-0.1c-0.7,0-1.2,0-1.5,0c-0.1,0-0.4,0-0.7,0c-0.3,0-0.7,0-1,0c-0.4,0-0.7,0-1.1,0c-0.3,0-0.6,0-0.7,0
				c-0.1,0.1-0.3,0.2-0.5,0.5c-0.2,0.3-0.3,0.4-0.4,0.5c0,0,0,0.1,0,0.2c0,0.1,0,0.2,0,0.3C142.9,60.5,143.1,61.2,143.5,61.8z"/>
			<path class="st1" d="M167.1,52.3c0-1.4,0.1-2.8,0.3-4.2c0.2-1.4,0.5-2.6,0.9-3.6c0.4-1,1.1-1.5,2-1.5c0.6,0,1.1,0.4,1.6,1.3
				c0.5,0.9,0.9,2,1.3,3.3c0.4,1.4,0.7,2.8,1,4.5c0.3,1.6,0.5,3.2,0.7,4.7c0.2,1.5,0.3,2.8,0.3,4.1c0,1.2,0,2-0.1,2.5
				c-0.2,1.1-0.5,2-0.8,2.7c-0.3,0.7-0.6,1.2-1,1.6c-0.4,0.4-0.8,0.6-1.2,0.7c-0.4,0.1-0.9,0.2-1.4,0.2c-1,0-1.8-0.4-2.3-1.3
				c-0.5-0.9-0.9-1.9-1.1-3.2c-0.2-1.3-0.3-2.7-0.3-4.2c0-1.5,0-2.9,0-4.1C167.1,54.9,167.1,53.7,167.1,52.3z"/>
			<path class="st1" d="M180.7,43.9c0.8,0.1,1.4,0.6,1.8,1.4c0.4,0.8,0.7,1.8,0.9,2.9c0.2,1.1,0.3,2.3,0.3,3.6
				c0,1.3,0.1,2.5,0.2,3.6c0.1,1.1,0.2,2,0.5,2.8c0.2,0.8,0.6,1.2,1.2,1.3c0.1,0,0.1,0,0.2,0c0.1,0,0.2,0,0.2,0
				c0.3-0.3,0.8-0.8,1.5-1.6c0.7-0.7,1.4-1.5,2.2-2.4c0.8-0.9,1.5-1.7,2.2-2.4c0.7-0.8,1.2-1.3,1.4-1.6c0.5-0.5,1-1.3,1.7-2.3
				c0.7-1,1.5-2.1,2.3-3.2c0.8-1.1,1.7-2.3,2.6-3.5c0.9-1.2,1.8-2.2,2.7-3.1c0.9-0.9,1.8-1.7,2.7-2.2c0.9-0.6,1.7-0.8,2.4-0.7
				c0.4,0.1,0.8,0.2,1.1,0.5c0.3,0.3,0.4,0.8,0.4,1.5c0,0.1,0,0.2-0.1,0.3c0,0.1,0,0.2-0.1,0.2c-0.8,0.6-1.7,1.3-2.8,2.2
				c-1.1,0.9-2.2,2-3.3,3.1c-1.1,1.1-2,2.3-2.8,3.6c-0.8,1.3-1.3,2.5-1.4,3.8c-0.1,1.1,0.2,1.9,0.9,2.5c0.7,0.6,1.7,1.1,2.8,1.5
				c1.1,0.4,2.4,0.8,3.8,1c1.4,0.3,2.6,0.6,3.8,1c1.1,0.4,2.1,0.9,2.8,1.5c0.7,0.6,1,1.4,0.9,2.4c0,0.1,0,0.2-0.1,0.3
				c0,0.1,0,0.2-0.1,0.3c-0.1,0.1-0.2,0.3-0.5,0.5c-0.2,0.2-0.4,0.4-0.5,0.5c-0.3,0-0.8,0-1.6,0c-0.7,0-1.5,0-2.4,0
				c-0.8,0-1.6,0-2.4,0c-0.7,0-1.3,0-1.6,0c0,0-0.1,0-0.2,0c-0.1,0-0.2,0-0.2,0c0,0-0.2,0-0.3-0.1c-0.2-0.1-0.4-0.2-0.9-0.3
				c-0.4-0.2-0.9-0.4-1.5-0.6c-0.6-0.2-1.2-0.5-1.8-0.8c-0.6-0.3-1.2-0.5-1.8-0.8c-0.6-0.2-1.1-0.4-1.5-0.6
				c-0.4-0.2-0.7-0.3-0.9-0.3c0,0-0.2-0.1-0.4-0.1c-0.2,0-0.4-0.1-0.5-0.1c-0.1,0-0.2,0-0.4,0c-0.2,0-0.3,0-0.3,0c0,0-5.5,5-7.8,5.6
				c0,0-0.1,0-0.3,0c-0.2,0-0.4,0-0.6,0c-0.2,0-0.4,0-0.6,0c-0.2,0-0.4,0-0.5,0c-1.3-0.2-2.3-1-3.1-2.4c-0.8-1.4-1.4-3.1-1.8-5
				c-0.4-1.9-0.6-4-0.6-6.1c0-2.1,0-3.9,0.2-5.5C179,44.5,179.6,43.8,180.7,43.9z"/>
			<path class="st1" d="M93.7,48.6c0.2,2.2-0.3,4.2-1.5,6.1c-1.1,1.7-2.2,2.6-3.2,2.6c-1.1,0.1-2.3-0.4-3.6-1.6
				c-1.7-1.5-2.6-3.4-2.8-5.8c-0.2-1.9,0.2-3.6,1.2-5.2c0.9-1.4,1.9-2.1,2.9-2.2c1.6-0.1,3.2,0.4,4.5,1.5
				C92.6,45.2,93.5,46.7,93.7,48.6z"/>
			<path class="st1" d="M76.5,49.6c0,2-0.7,3.9-2,5.6c-1.2,1.5-2.2,2.2-3.2,2.2c-1,0-2.1-0.6-3.2-1.7C66.7,54.2,66,52.3,66,50
				c0-1.8,0.5-3.4,1.6-4.7c1-1.2,1.9-1.9,2.9-1.9c1.5,0,2.9,0.6,4.1,1.7C75.9,46.3,76.5,47.8,76.5,49.6z"/>
		</g>
	</g>
	<g>
		<path class="st1" d="M228,36.3c0,3.4-2.8,6.2-6.3,6.2c-3.5,0-6.3-2.7-6.3-6.2c0-3.4,2.8-6.1,6.4-6.1C225.2,30.1,228,32.8,228,36.3
			z M216.9,36.3c0,2.7,2.1,4.9,4.8,4.9c2.7,0,4.7-2.2,4.7-4.9c0-2.7-2-4.9-4.8-4.9C219,31.4,216.9,33.6,216.9,36.3z M220.7,39.4
			h-1.4v-6.1c0.6-0.1,1.3-0.2,2.4-0.2c1.2,0,1.7,0.2,2.1,0.5c0.4,0.3,0.6,0.7,0.6,1.3c0,0.7-0.6,1.2-1.3,1.5v0.1
			c0.6,0.2,0.9,0.7,1.1,1.5c0.2,0.9,0.3,1.3,0.5,1.5h-1.5c-0.2-0.2-0.3-0.7-0.5-1.5c-0.1-0.6-0.5-0.9-1.3-0.9h-0.7V39.4z M220.7,36
			h0.7c0.8,0,1.4-0.3,1.4-0.9c0-0.6-0.4-0.9-1.3-0.9c-0.4,0-0.6,0-0.8,0.1V36z"/>
	</g>
</g>
</svg>
