<?xml version="1.0" encoding="utf-8"?>
<!-- Generator: Adobe Illustrator 16.0.2, SVG Export Plug-In . SVG Version: 6.00 Build 0)  -->
<!DOCTYPE svg PUBLIC "-//W3C//DTD SVG 1.1//EN" "http://www.w3.org/Graphics/SVG/1.1/DTD/svg11.dtd">
<svg version="1.1" id="Слой_1" xmlns="http://www.w3.org/2000/svg" xmlns:xlink="http://www.w3.org/1999/xlink" x="0px" y="0px"
	 width="198.061px" height="48.922px" viewBox="30.904 28.433 198.061 48.922"
	 enable-background="new 30.904 28.433 198.061 48.922" xml:space="preserve">
<g>
	<g>
		<path fill="#EB5D13" d="M77.5,70.5c3.3,0.3,6.6-0.1,9.8-1.1c1.1-0.4,4-1.7,5-2.601c0.3-0.3,0.7-0.6,1-0.899
			c1.6-1.5,2.3-2.5,2.4-2.601c1-0.8,1.8-1.3,2.699-1.399c0.9-0.101,1.7,0.2,2.4,0.8c0.6,0.5,0.8,1.4,0.6,2.6
			c-0.3,1.4-1.1,2.7-2.5,3.9c-4.5,3.6-9.6,5.7-14.899,6.5c-4.101,1.1-9.8-0.1-14.101-1.5c-3.399-1.1-8.8-4.5-10.199-5.3
			c-1.4-0.8-2.301-1.4-2.601-1.7c-0.6-0.6-0.899-1.2-0.8-1.8c0-0.601,0-1.4,0.8-2.2c0.9-0.8,2.2-0.9,3.101-0.7
			c0.8,0.2,1.699,0.7,2.6,1.5c0.7,0.601,1.4,1.2,2.1,1.9c0.801,0.7,5.101,3.2,7.4,3.8C74.5,70.2,76.8,70.7,77.5,70.5z"/>
		<g>
			<path fill="#5E4F9C" d="M33.8,45c0.9-2.3,2.2-4.2,3.8-5.899c1.601-1.7,3.601-2.9,5.8-3.9c2.2-0.9,4.7-1.4,7.301-1.4
				c0.8,0,1.899,0.101,3.199,0.2c1.301,0.101,2.5,0.4,3.7,0.7c1.2,0.4,2.2,1,3.101,1.7c0.899,0.8,1.3,1.8,1.3,3.1
				c0,0.601-0.2,1-0.601,1.2C61,40.9,60.5,41,60,41c-0.8,0-1.5-0.1-2.2-0.2c-0.7-0.1-1.4-0.199-2.1-0.399C55,40.3,54.3,40.1,53.6,40
				c-0.8,0-1.5,0-2.3,0c-1.6,0-3.1,0.2-4.6,0.7c-1.4,0.4-2.601,1.1-3.7,2c-1.101,0.9-1.9,2-2.5,3.4C39.9,47.4,39.6,49,39.6,50.8
				c0,0.301,0.101,0.601,0.2,1c0.1,0.4,0.3,0.7,0.4,1C40.4,53.1,40.6,53.4,40.8,53.7s0.5,0.5,0.8,0.6c0.2,0,0.4,0,0.4,0
				c1.5,0,2.899-0.199,4.399-0.5c1.4-0.399,2.9-0.5,4.301-0.5c0.699,0,1.399,0,2.199,0.101c0.801,0,1.601,0.2,2.301,0.399
				c0.699,0.2,1.399,0.5,2,0.9c0.6,0.4,1.6,0.9,1.5,1.7c-0.101,0.7-2,2-2,2c-0.4,0-1.101,0-2,0.1c-1,0.101-2,0.2-3.101,0.3
				C50.5,58.9,49.5,59,48.5,59.1c-1,0.1-1.601,0.199-2,0.3c-0.101,0-0.2,0-0.4,0.1c-0.2,0.101-0.399,0.2-0.6,0.3
				C45.3,59.9,45.1,60,44.9,60.1C44.7,60.2,44.6,60.3,44.5,60.3C44.7,61,44.9,61.9,44.9,63c0,1.101-0.1,2.101-0.3,3.101
				c-0.3,1-0.7,1.8-1.399,2.5c-0.7,0.699-1.601,1-2.7,1c-0.8,0-1.5-0.301-2.2-1C37.6,67.9,36.9,67,36.3,66c-0.6-1.1-1.2-2.3-1.7-3.6
				S33.7,59.8,33.3,58.5S32.7,56.1,32.5,55c-0.2-1.1-0.3-2-0.3-2.6C32.4,49.7,32.9,47.3,33.8,45z"/>
			<path fill="#5E4F9C" d="M127.2,45.1c0.1-0.5,0.1-1.101,0-1.9c0-0.5-0.101-1-0.2-1.4c-0.101-0.399-0.3-0.699-0.8-0.899
				c-4.5-1.2-8.9-2.101-13.2-2.7c-4.4-0.6-8.8-0.8-13.2-0.5c-0.2,0-0.5,0-0.8,0.1c-0.4,0-0.7,0.101-1,0.101S97.4,38,97.1,38
				S96.7,38.1,96.7,38.1S95.9,39,96,39.3C96,39.7,96.9,40.4,96.9,40.4c0.5,0.7,1.301,1.2,2.2,1.5c1,0.3,2.101,0.5,3.3,0.6
				c1.2,0.101,2.4,0.3,3.7,0.4c1.3,0.1,2.4,0.3,3.5,0.5c1,0.3,1.9,0.7,2.601,1.3c0.699,0.6,1.1,1.4,1.199,2.5
				c0.101,1.5,0,3-0.199,4.5c-0.301,1.5-0.5,2.9-0.9,4.3c-0.3,1.4-0.6,2.8-0.9,4.3c-0.3,1.5-0.3,3-0.199,4.5
				c0.1,1.4,0.3,2.4,0.5,2.9c0.3,0.6,0.899,0.8,1.8,0.8c0.899-0.1,1.6-0.5,2.1-1.2c0.5-0.699,0.9-1.699,1.101-2.8
				c0.3-1.1,0.399-2.399,0.6-3.8c0.1-1.4,0.3-2.8,0.4-4.3C117.9,55,118.1,53.6,118.4,52.3C118.7,51,119.2,49.9,119.9,48.9
				c0.7-0.9,1.5-1.601,2.601-2c1.1-0.4,2.5-0.4,4.2,0C126.9,46.3,127.1,45.6,127.2,45.1z"/>
			<path fill="#5E4F9C" d="M130.2,44.5c0.3-1.8,0.699-3.399,1.399-4.8s1.601-2.6,2.7-3.5s2.6-1.3,4.3-1.3c2.3,0,4.3,0.5,5.9,1.399
				c1.6,0.9,2.8,2.2,3.6,3.801c0.9,1.6,1.4,3.399,1.7,5.5c0.3,2.1,0.3,4.3,0.1,6.6c0.7,0.5,1.5,0.9,2.4,1.2
				c0.9,0.399,1.9,0.7,2.9,1.1c1,0.4,2,0.8,2.899,1.2c1,0.4,1.8,1,2.601,1.6c0.8,0.601,1.399,1.4,1.8,2.301
				c0.5,0.899,0.7,1.899,0.7,3.199c0,1.2-0.301,2.301-0.801,3.2c-0.5,0.9-1.199,1.7-2,2.4c-0.8,0.6-1.699,1.1-2.699,1.5
				c-1,0.3-2,0.5-2.9,0.5c-1.8,0-3.3-0.3-4.7-0.8c-1.399-0.5-2.6-1.2-3.8-2c-1.2-0.801-2.4-1.601-3.6-2.4
				c-1.2-0.8-2.601-1.4-4.101-1.9c-0.1,0-0.3,0-0.6,0s-0.7,0-1.101,0c-0.399,0-0.8,0-1.1,0s-0.601,0-0.601,0
				c-0.399-0.1-0.8-0.5-1.199-1.1c-0.4-0.6-0.801-1.4-1.2-2.3c-0.4-0.9-0.8-1.9-1.101-3c-0.3-1.101-0.6-2.101-0.899-3.101
				s-0.5-1.8-0.601-2.6C130,50.5,130,50,130,49.7C129.8,48,129.9,46.3,130.2,44.5z M137.3,42.4c0,0.7,0,1.399,0,2.2
				c0,0.8,0.1,1.6,0.2,2.399c0.1,0.8,0.3,1.5,0.5,2.101c0.2,0.6,0.6,1.1,1,1.5c0.399,0.399,1,0.6,1.7,0.6c2.699,0,4.1-1.6,4.1-4.8
				c0-1.101-0.2-2-0.8-2.7c-0.5-0.7-1.101-1.3-1.9-1.8c-0.8-0.4-1.6-0.8-2.399-1c-0.9-0.2-1.601-0.3-2.4-0.3
				C137.4,41.2,137.4,41.8,137.3,42.4z M143.5,61.8c0.399,0.601,0.899,1.101,1.6,1.5c0.601,0.4,1.4,0.7,2.101,1
				c0.8,0.301,1.6,0.5,2.3,0.7c0.8,0.2,1.399,0.3,2.1,0.3C152.2,65.4,152.7,65.4,153,65.4c0.5,0,1,0,1.6-0.101
				c0.601-0.1,1.101-0.199,1.601-0.5c0.5-0.199,0.899-0.5,1.199-1c0.301-0.399,0.5-1,0.5-1.699c0-0.601-0.199-1.2-0.6-1.601
				c-0.4-0.399-1-0.8-1.7-1.1s-1.399-0.5-2.2-0.7c-0.8-0.2-1.6-0.3-2.399-0.4c-0.8-0.1-1.5-0.1-2.2-0.1s-1.2,0-1.5,0
				c-0.1,0-0.4,0-0.7,0s-0.7,0-1,0c-0.399,0-0.7,0-1.1,0c-0.3,0-0.601,0-0.7,0c-0.1,0.1-0.3,0.2-0.5,0.5s-0.3,0.4-0.4,0.5
				c0,0,0,0.1,0,0.2c0,0.1,0,0.2,0,0.3C142.9,60.5,143.1,61.2,143.5,61.8z"/>
			<path fill="#5E4F9C" d="M167.1,52.3c0-1.399,0.101-2.8,0.3-4.199c0.2-1.4,0.5-2.601,0.9-3.601s1.1-1.5,2-1.5
				c0.6,0,1.1,0.4,1.6,1.3c0.5,0.9,0.9,2,1.301,3.301c0.399,1.399,0.699,2.8,1,4.5c0.3,1.6,0.5,3.199,0.699,4.699
				c0.2,1.5,0.301,2.801,0.301,4.101c0,1.2,0,2-0.101,2.5c-0.2,1.1-0.5,2-0.8,2.7c-0.3,0.699-0.6,1.199-1,1.6s-0.8,0.6-1.2,0.7
				c-0.399,0.1-0.899,0.2-1.399,0.2c-1,0-1.801-0.4-2.301-1.301c-0.5-0.899-0.899-1.899-1.1-3.199c-0.2-1.301-0.3-2.7-0.3-4.2
				s0-2.9,0-4.101C167.1,54.9,167.1,53.7,167.1,52.3z"/>
			<path fill="#5E4F9C" d="M180.7,43.9c0.8,0.1,1.399,0.6,1.8,1.399c0.399,0.801,0.7,1.801,0.899,2.9c0.2,1.1,0.301,2.3,0.301,3.6
				c0,1.301,0.1,2.5,0.199,3.601c0.101,1.1,0.2,2,0.5,2.8c0.2,0.8,0.601,1.2,1.2,1.3c0.101,0,0.101,0,0.2,0s0.2,0,0.2,0
				c0.3-0.3,0.8-0.8,1.5-1.6c0.7-0.7,1.399-1.5,2.2-2.4c0.8-0.899,1.5-1.7,2.199-2.399c0.7-0.801,1.2-1.301,1.4-1.601
				c0.5-0.5,1-1.3,1.7-2.3s1.5-2.1,2.3-3.2c0.8-1.1,1.7-2.3,2.6-3.5c0.9-1.2,1.801-2.2,2.7-3.1c0.9-0.9,1.8-1.7,2.7-2.2
				c0.9-0.6,1.7-0.8,2.4-0.7c0.399,0.101,0.8,0.2,1.1,0.5s0.4,0.8,0.4,1.5c0,0.101,0,0.2-0.101,0.3c0,0.101,0,0.2-0.1,0.2
				c-0.801,0.601-1.7,1.3-2.801,2.2c-1.1,0.9-2.199,2-3.3,3.1c-1.1,1.101-2,2.301-2.8,3.601s-1.3,2.5-1.4,3.8
				c-0.1,1.1,0.2,1.9,0.9,2.5s1.7,1.1,2.8,1.5c1.101,0.4,2.4,0.8,3.8,1c1.4,0.3,2.601,0.6,3.801,1c1.1,0.4,2.1,0.9,2.8,1.5
				s1,1.4,0.899,2.4c0,0.1,0,0.199-0.1,0.3c0,0.1,0,0.2-0.1,0.3c-0.101,0.1-0.2,0.3-0.5,0.5c-0.2,0.2-0.4,0.4-0.5,0.5
				c-0.301,0-0.801,0-1.601,0c-0.7,0-1.5,0-2.399,0c-0.801,0-1.601,0-2.4,0c-0.7,0-1.3,0-1.6,0c0,0-0.101,0-0.2,0
				c-0.101,0-0.2,0-0.2,0s-0.2,0-0.3-0.1c-0.2-0.101-0.4-0.2-0.9-0.301C202.5,62.6,202,62.4,201.4,62.2c-0.6-0.2-1.2-0.5-1.8-0.8
				s-1.2-0.5-1.8-0.8c-0.601-0.2-1.101-0.4-1.5-0.601c-0.4-0.2-0.7-0.3-0.9-0.3c0,0-0.2-0.1-0.399-0.1c-0.2,0-0.4-0.101-0.5-0.101
				c-0.101,0-0.2,0-0.4,0s-0.3,0-0.3,0s-5.5,5-7.8,5.601c0,0-0.101,0-0.301,0c-0.199,0-0.399,0-0.6,0s-0.4,0-0.6,0
				c-0.2,0-0.4,0-0.5,0c-1.301-0.2-2.301-1-3.101-2.4s-1.399-3.1-1.8-5s-0.6-4-0.6-6.1c0-2.101,0-3.9,0.199-5.5
				C179,44.5,179.6,43.8,180.7,43.9z"/>
			<path fill="#5E4F9C" d="M93.7,48.6C93.9,50.8,93.4,52.8,92.2,54.7C91.1,56.4,90,57.3,89,57.3C87.9,57.4,86.7,56.9,85.4,55.7
				c-1.699-1.5-2.6-3.4-2.8-5.8c-0.2-1.9,0.2-3.601,1.2-5.2c0.9-1.4,1.9-2.1,2.9-2.2c1.6-0.1,3.199,0.4,4.5,1.5
				C92.6,45.2,93.5,46.7,93.7,48.6z"/>
			<path fill="#5E4F9C" d="M76.5,49.6c0,2-0.7,3.899-2,5.6c-1.2,1.5-2.2,2.2-3.2,2.2s-2.1-0.601-3.2-1.7C66.7,54.2,66,52.3,66,50
				c0-1.8,0.5-3.399,1.6-4.7c1-1.199,1.9-1.899,2.9-1.899c1.5,0,2.899,0.6,4.1,1.7C75.9,46.3,76.5,47.8,76.5,49.6z"/>
		</g>
	</g>
	<g>
		<path fill="#5E4F9C" d="M228,36.3c0,3.4-2.8,6.2-6.3,6.2s-6.301-2.7-6.301-6.2c0-3.399,2.801-6.1,6.4-6.1
			C225.2,30.1,228,32.8,228,36.3z M216.9,36.3c0,2.7,2.101,4.9,4.801,4.9c2.699,0,4.699-2.2,4.699-4.9c0-2.699-2-4.899-4.8-4.899
			C219,31.4,216.9,33.6,216.9,36.3z M220.7,39.4h-1.4V33.3c0.6-0.1,1.3-0.199,2.4-0.199c1.199,0,1.699,0.199,2.1,0.5
			c0.4,0.3,0.6,0.699,0.6,1.3c0,0.7-0.6,1.2-1.3,1.5v0.1c0.601,0.2,0.9,0.7,1.101,1.5c0.199,0.9,0.3,1.3,0.5,1.5h-1.5
			c-0.2-0.2-0.301-0.7-0.5-1.5c-0.101-0.6-0.5-0.899-1.301-0.899H220.7V39.4L220.7,39.4z M220.7,36h0.699c0.801,0,1.4-0.3,1.4-0.899
			c0-0.601-0.4-0.9-1.3-0.9c-0.4,0-0.601,0-0.8,0.1V36L220.7,36z"/>
	</g>
</g>
</svg>
